<?xml version="1.0" standalone="no"?>
<!DOCTYPE svg PUBLIC "-//W3C//DTD SVG 20010904//EN"
 "http://www.w3.org/TR/2001/REC-SVG-20010904/DTD/svg10.dtd">
<svg version="1.0" xmlns="http://www.w3.org/2000/svg"
 width="600.000000pt" height="600.000000pt" viewBox="0 0 600.000000 600.000000"
 preserveAspectRatio="xMidYMid meet">
<metadata>
Created by potrace 1.14, written by Peter Selinger 2001-2017
</metadata>
<g transform="translate(0.000000,600.000000) scale(0.100000,-0.100000)"
fill="#000000" stroke="none">
<path d="M2125 5001 c-4 -4 30 -69 61 -116 9 -14 13 -25 10 -25 -4 0 2 -10 14
-22 11 -12 20 -28 20 -35 0 -7 3 -13 8 -13 4 0 12 -10 18 -23 23 -47 163 -297
174 -312 4 -5 24 -41 45 -80 21 -38 44 -77 51 -86 8 -8 14 -19 14 -23 0 -4 23
-46 50 -92 28 -47 47 -91 44 -97 -4 -7 -4 -9 1 -5 11 10 97 -141 88 -155 -3
-5 -1 -7 4 -4 13 8 26 -20 16 -35 -3 -6 -1 -8 4 -5 10 6 42 -45 147 -234 14
-26 24 -48 23 -50 -1 -2 0 -3 2 -2 2 2 28 -39 58 -91 46 -82 57 -94 85 -100
25 -5 30 -9 18 -16 -9 -6 -18 -5 -23 3 -6 8 -7 6 -3 -6 3 -10 6 -22 6 -25 0
-4 4 0 10 8 5 8 12 11 16 7 4 -3 1 -13 -6 -22 -11 -14 -10 -14 15 -1 34 18 61
11 44 -10 -10 -12 -8 -13 6 -8 14 6 16 4 10 -7 -7 -11 -6 -12 7 -2 8 7 19 9
23 5 5 -4 5 -1 1 6 -4 7 -11 10 -15 8 -4 -3 -8 2 -8 10 0 10 4 11 11 4 13 -13
36 -13 36 1 0 5 -4 8 -8 5 -5 -3 -9 2 -9 10 0 13 2 13 15 0 13 -12 13 -18 2
-31 -11 -13 -10 -14 5 -9 13 5 16 4 10 -5 -4 -8 4 -6 19 4 14 10 26 22 26 27
0 5 7 2 16 -7 12 -12 19 -13 30 -4 11 9 18 7 31 -8 10 -10 14 -13 9 -6 -11 17
6 17 23 1 11 -10 13 -10 7 0 -4 6 -3 12 2 12 15 0 33 -26 24 -35 -4 -5 -1 -5
6 -1 9 6 10 11 2 21 -7 9 -6 16 5 25 13 11 14 10 10 -3 -8 -18 11 -32 21 -16
5 8 3 9 -6 4 -8 -5 -11 -4 -6 3 9 15 38 3 29 -12 -3 -6 4 -2 17 9 20 17 23 18
17 3 -5 -15 -4 -16 13 -6 10 7 17 15 14 19 -2 4 1 11 7 15 8 5 9 3 4 -6 -6
-10 -2 -12 18 -8 17 3 24 1 20 -7 -2 -7 -12 -11 -23 -8 -21 6 -36 -12 -19 -23
8 -4 9 -3 5 4 -4 7 -1 12 9 12 10 0 13 -5 9 -12 -5 -8 0 -7 11 2 10 8 20 14
22 13 9 -7 23 -2 23 8 0 8 -6 7 -17 -2 -15 -13 -15 -12 -2 8 8 14 16 18 20 11
5 -7 8 -6 12 3 2 8 2 4 0 -8 -2 -13 1 -23 7 -23 6 0 9 4 6 9 -3 5 1 11 9 15 8
3 15 11 15 18 0 9 -3 9 -11 -2 -7 -11 -9 -7 -5 18 2 18 0 30 -5 26 -5 -3 -9
-1 -9 5 0 5 6 12 13 14 9 4 9 6 -1 6 -7 1 -11 5 -8 10 3 5 -1 14 -8 20 -12 10
-14 9 -11 -6 2 -10 4 -20 5 -23 1 -3 2 -9 1 -14 -1 -4 3 -14 8 -20 8 -9 7 -13
-2 -13 -8 0 -14 5 -15 11 -1 6 -3 23 -5 37 -1 15 -9 35 -17 45 -8 10 -10 15
-4 11 8 -4 13 4 16 24 3 16 1 32 -4 35 -5 3 -5 10 -2 16 4 7 2 8 -5 4 -8 -6
-10 2 -6 26 4 24 3 29 -5 18 -10 -16 -13 -10 -13 32 0 10 -3 15 -7 13 -13 -8
-19 22 -7 35 9 10 9 11 -2 5 -11 -6 -13 -4 -8 8 3 9 2 19 -4 22 -5 4 -6 11 -3
17 4 7 2 8 -5 4 -6 -4 -9 -11 -7 -15 3 -4 -1 -8 -8 -8 -7 0 -13 6 -13 13 0 7
4 11 8 9 9 -6 17 16 12 33 -3 6 -9 12 -15 12 -7 0 -7 -5 1 -13 8 -10 7 -14 -3
-14 -8 0 -13 7 -11 16 3 19 -15 63 -30 73 -6 5 -6 8 1 8 7 0 14 9 17 20 3 13
0 20 -9 20 -17 0 -19 17 -2 22 7 3 5 7 -6 11 -9 4 -15 3 -12 -1 2 -4 0 -14 -5
-22 -7 -11 -8 -9 -6 8 2 13 11 31 20 42 15 17 14 19 -3 17 -10 -1 -17 -4 -14
-8 2 -4 0 -10 -5 -13 -5 -4 -12 -2 -16 4 -4 6 -11 7 -17 4 -7 -4 -8 -2 -4 5 4
6 11 9 16 6 4 -3 11 2 14 11 9 23 7 34 -5 34 -5 0 -7 -5 -3 -12 4 -6 3 -8 -3
-5 -7 5 -8 20 -3 42 4 19 5 35 2 35 -3 0 2 6 12 13 16 12 16 13 -3 13 -11 0
-18 -3 -15 -7 2 -4 -3 -10 -12 -13 -25 -9 -27 -7 -10 10 9 8 13 20 10 26 -5 7
-2 8 7 2 18 -11 70 -5 88 9 11 9 13 9 8 1 -4 -7 2 -14 13 -17 11 -3 23 -1 26
4 3 5 0 8 -7 7 -7 -2 -14 6 -16 17 -3 18 -2 18 5 2 4 -10 11 -18 15 -18 26 3
28 -1 11 -21 l-19 -22 26 20 c15 10 24 23 21 28 -3 6 10 -1 29 -14 l34 -24
-23 26 c-17 19 -20 28 -11 33 8 5 10 4 5 -3 -8 -13 43 -42 62 -35 6 3 12 -1
12 -9 0 -11 2 -11 9 0 4 7 17 14 29 15 11 0 18 5 16 9 -3 4 -1 8 4 8 5 0 12
-9 15 -21 5 -20 7 -20 29 -5 27 19 42 21 32 4 -4 -7 -4 -10 1 -6 4 4 15 2 24
-5 14 -10 14 -10 4 3 -10 13 -8 18 10 30 20 12 21 12 8 -3 -16 -20 -1 -23 18
-4 11 10 12 7 7 -13 l-7 -25 15 25 c11 19 12 29 3 40 -9 13 -9 13 3 2 8 -7 15
-18 15 -25 0 -7 3 -12 6 -12 4 0 17 -9 30 -20 18 -15 20 -15 10 -2 -12 15 -11
17 6 17 10 0 25 -6 32 -12 11 -10 10 -8 0 10 -8 12 -20 22 -28 22 -8 0 -12 3
-8 6 3 4 14 3 24 -1 10 -5 22 -7 26 -6 5 1 5 -4 1 -10 -4 -7 -2 -10 7 -7 8 3
13 11 11 17 -1 7 2 9 8 6 6 -4 9 -13 6 -21 -3 -7 0 -16 6 -20 7 -5 8 -2 3 6
-6 10 -4 12 9 7 11 -5 15 -3 10 4 -4 7 -2 10 5 8 10 -4 12 -93 12 -378 0 -205
3 -371 6 -367 3 3 13 0 21 -7 13 -9 14 -9 8 1 -5 8 0 12 15 12 18 0 19 -2 9
-15 -11 -13 -10 -14 3 -10 8 4 18 2 21 -4 4 -6 12 -9 19 -7 7 1 9 1 5 -1 -14
-8 -8 -22 14 -34 18 -10 20 -9 15 5 -8 21 2 20 20 -1 8 -10 12 -12 8 -5 -7 15
11 16 20 2 5 -8 11 -8 19 -1 9 7 17 7 26 -2 10 -10 11 -9 5 2 -6 10 -4 13 7 8
9 -3 20 -1 26 5 6 6 12 6 17 -3 6 -8 4 -10 -6 -4 -8 5 -11 5 -7 0 4 -4 2 -15
-5 -24 -7 -9 -2 -7 15 4 18 14 23 24 17 32 -7 7 -6 14 1 18 6 4 9 1 8 -7 -2
-7 3 -12 10 -10 8 1 11 -2 7 -8 -4 -6 7 -10 27 -10 26 0 30 3 18 11 -12 8 -11
9 5 6 11 -2 19 -9 17 -17 -2 -10 0 -11 11 -2 9 8 17 8 24 1 8 -8 13 -7 18 2 5
8 4 10 -3 5 -7 -4 -12 -3 -12 3 0 5 9 9 20 8 24 -2 25 -5 3 -31 -18 -21 -18
-21 4 -3 26 23 52 28 77 15 10 -6 16 -6 13 -1 -3 4 2 17 10 28 15 19 15 19 8
-5 -6 -20 -5 -23 6 -12 25 24 32 12 8 -15 -17 -20 -18 -23 -3 -10 11 9 26 17
33 17 7 0 9 5 5 11 -4 7 -1 10 7 7 8 -3 13 -11 11 -18 -2 -11 0 -11 12 -1 10
8 16 9 21 1 5 -8 11 -8 19 -1 9 7 17 7 26 -2 10 -10 11 -9 5 2 -6 11 -4 13 8
8 9 -3 19 -2 22 3 3 5 13 6 22 3 9 -4 14 -2 10 3 -3 5 3 10 13 10 10 0 16 -4
14 -8 -3 -4 0 -8 5 -8 6 0 11 5 11 11 0 5 5 7 11 3 17 -10 -12 -25 -36 -18
-24 8 -19 1 14 -16 13 -6 21 -8 17 -2 -5 9 17 24 39 26 6 1 11 7 11 14 1 6 2
13 4 15 6 8 7 36 0 32 -9 -6 -23 12 -26 33 -1 6 2 12 8 12 6 0 8 -7 4 -15 -3
-8 -1 -15 4 -15 6 0 10 9 10 21 0 13 4 18 12 13 7 -4 8 -3 4 4 -4 6 -12 9 -19
6 -7 -2 -21 3 -32 11 -19 16 -19 16 3 5 16 -8 22 -8 22 0 0 6 4 9 9 6 5 -3 8
2 7 12 0 10 5 16 14 14 12 -3 12 0 -2 14 -13 13 -20 15 -30 6 -11 -8 -14 -7
-14 7 0 11 6 17 13 14 7 -3 13 2 13 12 0 10 -5 13 -12 9 -6 -4 -8 -3 -4 4 3 5
0 13 -6 15 -10 4 -10 6 0 6 8 1 10 6 6 13 -10 16 -13 48 -4 43 3 -2 12 0 20 6
13 7 12 9 -2 9 -21 0 -23 11 -5 29 10 12 9 13 -7 7 -15 -5 -17 -4 -8 7 7 8 9
17 5 21 -11 11 -12 36 -1 36 6 0 8 -7 4 -15 -3 -8 -1 -15 4 -15 6 0 10 9 10
20 0 18 -11 25 -33 21 -5 -1 -6 3 -2 9 3 6 11 8 16 4 6 -3 10 0 8 7 -3 29 2
38 22 34 17 -3 18 -1 10 9 -7 8 -22 12 -34 9 -19 -4 -20 -3 -4 7 22 14 22 29
0 47 -10 8 -12 12 -5 8 13 -7 17 7 5 19 -9 8 -12 46 -3 41 3 -2 12 0 20 6 13
7 12 9 -1 9 -10 0 -19 10 -21 24 -3 16 -1 23 7 20 6 -3 18 3 26 13 13 16 12
17 -3 5 -13 -11 -18 -11 -24 0 -13 20 -13 38 -2 38 6 0 8 -7 4 -15 -3 -8 -1
-15 4 -15 6 0 10 9 10 20 0 11 -4 20 -8 20 -5 0 -17 7 -28 16 -18 15 -18 15 2
5 19 -9 22 -7 22 15 0 14 4 30 10 36 11 11 4 50 -8 43 -4 -3 -11 2 -14 11 -3
8 -2 12 4 9 11 -7 14 8 3 19 -9 8 -12 46 -3 41 3 -2 12 0 20 6 13 7 12 9 -1 9
-10 0 -19 11 -22 27 l-5 27 20 -25 19 -24 -17 35 c-22 43 -25 60 -12 60 6 0 8
-7 4 -15 -3 -8 -1 -15 4 -15 6 0 10 9 10 21 0 13 4 18 12 13 7 -4 8 -3 4 4 -4
6 -12 9 -19 6 -7 -2 -21 3 -32 11 -19 16 -19 16 3 5 16 -8 22 -8 22 0 0 6 4 9
9 6 5 -3 8 2 7 12 0 10 5 16 14 14 12 -3 12 0 -2 14 -13 13 -20 15 -30 6 -11
-8 -14 -7 -14 7 0 11 6 17 13 14 7 -3 13 2 13 12 0 10 -5 13 -12 9 -6 -4 -8
-3 -4 4 3 5 0 13 -6 15 -10 4 -10 6 0 6 8 1 10 6 6 13 -10 16 -13 48 -4 43 3
-2 12 0 20 6 13 7 12 9 -2 9 -21 0 -23 11 -5 29 10 12 8 13 -8 7 -16 -6 -17
-5 -8 5 9 9 9 16 2 25 -7 8 -6 14 2 20 8 4 9 3 5 -4 -4 -7 -2 -12 4 -12 7 0 9
8 5 21 -5 15 -4 19 5 14 8 -5 8 -1 -1 13 -7 12 -18 18 -24 15 -5 -4 -2 3 8 14
20 23 23 40 4 24 -10 -8 -14 -7 -14 4 0 8 4 12 9 9 12 -8 10 10 -4 24 -9 9 -9
12 0 12 6 0 16 -8 22 -17 11 -17 11 -16 5 1 -3 11 0 23 7 28 9 6 6 7 -9 3 -12
-3 -25 -1 -29 6 -4 7 -3 9 4 5 6 -3 13 -2 16 3 3 5 -1 11 -9 15 -9 3 -12 12
-8 22 3 9 0 20 -8 25 -23 15 -34 10 -13 -6 18 -14 18 -14 -3 -8 -19 4 -22 11
-20 42 l2 36 -1398 0 c-769 0 -1400 -1 -1402 -4z m2850 -261 c-3 -5 -12 -10
-18 -10 -7 0 -6 4 3 10 19 12 23 12 15 0z m13 -269 c-7 -11 -16 -18 -20 -15
-4 3 -2 11 5 19 18 21 29 18 15 -4z m-10 -300 c-7 -9 -13 -17 -14 -19 -1 -2
-1 8 0 21 0 15 6 23 14 20 10 -4 10 -9 0 -22z m-1613 1 c-3 -3 -11 0 -18 7 -9
10 -8 11 6 5 10 -3 15 -9 12 -12z m500 -12 c-3 -5 -12 -10 -18 -10 -7 0 -6 4
3 10 19 12 23 12 15 0z m-415 -10 c0 -5 -5 -10 -11 -10 -5 0 -7 5 -4 10 3 6 8
10 11 10 2 0 4 -4 4 -10z m245 0 c-3 -5 -14 -10 -23 -9 -14 0 -13 2 3 9 27 11
27 11 20 0z m41 -2 c4 -7 4 -10 -1 -6 -4 4 -15 2 -24 -5 -14 -11 -14 -10 -2 6
16 20 18 21 27 5z m68 3 c3 -5 -2 -15 -12 -22 -15 -13 -16 -12 -4 3 10 13 10
17 0 21 -9 4 -9 6 -1 6 6 1 14 -3 17 -8z m166 -9 c0 -5 -7 -9 -15 -9 -8 0 -12
4 -9 9 3 4 9 8 15 8 5 0 9 -4 9 -8z m-545 -62 c-3 -5 -12 -10 -18 -10 -7 0 -6
4 3 10 19 12 23 12 15 0z m-17 -65 c-3 -3 -9 2 -12 12 -6 14 -5 15 5 6 7 -7
10 -15 7 -18z m62 -130 c-7 -9 -15 -13 -19 -10 -3 3 1 10 9 15 21 14 24 12 10
-5z m1510 -5 c0 -5 -2 -10 -4 -10 -3 0 -8 5 -11 10 -3 6 -1 10 4 10 6 0 11 -4
11 -10z m-1499 -67 c13 -16 12 -17 -3 -4 -10 7 -18 15 -18 17 0 8 8 3 21 -13z
m64 -93 c-3 -5 -12 -10 -18 -10 -7 0 -6 4 3 10 19 12 23 12 15 0z m20 -90 c-2
-10 3 -21 11 -24 9 -3 12 -11 9 -17 -10 -15 -34 21 -30 43 2 10 0 18 -5 18 -4
0 -11 8 -14 17 -6 15 -5 15 13 -1 11 -10 18 -26 16 -36z m35 -94 c-8 -8 -13
-7 -20 4 -12 20 -1 33 16 19 11 -9 12 -15 4 -23z m1388 -25 c-7 -11 -16 -18
-20 -15 -4 3 -2 11 5 19 18 21 29 18 15 -4z m-1387 -124 c-10 -9 -11 -8 -5 6
3 10 9 15 12 12 3 -3 0 -11 -7 -18z m1379 -12 c-5 -6 -8 -14 -5 -17 3 -2 -2
-5 -10 -5 -8 0 -13 3 -10 5 3 3 -1 12 -8 21 -11 14 -10 15 7 1 18 -14 19 -13
13 2 -4 12 -2 15 9 11 10 -4 12 -9 4 -18z m-413 0 c0 -8 -4 -12 -9 -9 -5 3 -6
10 -3 15 9 13 12 11 12 -6z m-1084 -8 c4 3 7 1 7 -5 0 -17 -16 -15 -31 6 -12
15 -12 16 2 5 9 -7 19 -10 22 -6z m1324 6 c-4 -3 -1 -13 5 -22 7 -9 8 -13 4
-9 -5 4 -15 3 -23 -3 -9 -9 -13 -8 -13 0 0 6 5 11 10 11 6 0 9 3 9 8 -2 13 1
22 8 22 3 0 3 -3 0 -7z m-1437 -18 c11 -13 10 -14 -4 -9 -9 3 -16 10 -16 15 0
13 6 11 20 -6z m35 -3 c-3 -3 -11 0 -18 7 -9 10 -8 11 6 5 10 -3 15 -9 12 -12z
m880 0 c-3 -3 -11 0 -18 7 -9 10 -8 11 6 5 10 -3 15 -9 12 -12z m80 0 c-3 -3
-11 0 -18 7 -9 10 -8 11 6 5 10 -3 15 -9 12 -12z m93 -7 c-3 -3 -9 2 -12 12
-6 14 -5 15 5 6 7 -7 10 -15 7 -18z m159 10 c0 -6 -6 -12 -12 -12 -6 0 -12 6
-12 12 0 6 6 12 12 12 6 0 12 -6 12 -12z m38 5 c-3 -5 -12 -10 -18 -10 -7 0
-6 4 3 10 19 12 23 12 15 0z m120 0 c-3 -5 -12 -10 -18 -10 -7 0 -6 4 3 10 19
12 23 12 15 0z m-1525 -15 c-7 -9 -15 -13 -19 -10 -3 3 1 10 9 15 21 14 24 12
10 -5z m1086 3 c4 -7 4 -10 -1 -6 -4 4 -14 3 -22 -3 -8 -8 -13 -8 -13 -1 0 6
6 13 13 15 6 3 13 6 14 6 1 1 5 -5 9 -11z"/>
<path d="M1925 4973 c22 -58 53 -168 49 -175 -3 -4 -1 -8 5 -8 8 0 25 -48 26
-75 0 -5 3 -12 6 -15 3 -3 18 -43 34 -90 15 -47 39 -116 52 -153 13 -38 21
-72 18 -77 -3 -5 -1 -10 3 -12 5 -1 41 -102 81 -223 40 -121 77 -230 83 -241
5 -12 11 -33 11 -47 1 -14 4 -23 6 -21 8 7 40 -109 34 -120 -3 -6 -3 -8 2 -4
10 9 58 -129 50 -143 -4 -5 -2 -9 4 -9 5 0 17 -26 26 -57 9 -32 18 -65 21 -74
5 -18 63 -51 75 -43 4 2 6 -6 5 -19 -3 -22 1 -23 57 -18 5 1 5 7 1 14 -4 6 -4
9 1 5 4 -4 14 -3 22 4 7 6 16 8 20 4 3 -3 1 -6 -6 -6 -7 0 -9 -5 -5 -12 4 -6
3 -8 -3 -5 -6 4 -17 -1 -24 -10 -12 -14 -11 -15 11 -8 14 4 31 10 38 12 7 3
11 -1 9 -8 -2 -8 -2 -11 0 -6 3 4 10 4 15 1 7 -5 8 -2 3 6 -5 8 -3 11 6 8 8
-3 13 -11 11 -17 -1 -7 2 -10 7 -7 5 4 8 15 6 25 -2 10 3 18 11 18 11 0 11 -3
1 -15 -10 -13 -8 -14 12 -7 16 5 21 4 17 -4 -5 -7 -1 -8 11 -4 16 6 16 5 4
-10 -13 -16 -12 -16 14 -3 15 8 38 12 50 10 13 -2 27 1 31 7 4 8 9 7 15 -2 7
-11 9 -11 9 -1 0 7 4 11 9 7 5 -3 13 -1 16 5 4 6 3 10 -2 9 -21 -4 -25 2 -9
14 16 12 16 14 2 14 -15 0 -21 -11 -16 -32 1 -5 -2 -7 -6 -3 -4 4 -12 3 -19
-2 -8 -7 -12 -5 -12 5 0 7 5 13 10 12 5 -1 12 4 15 12 3 9 0 11 -9 6 -8 -5
-11 -5 -7 0 4 4 2 15 -5 24 -10 14 -10 14 4 3 14 -10 17 -9 22 8 3 11 0 23 -5
27 -7 3 -8 1 -4 -5 4 -7 2 -12 -3 -12 -6 0 -11 11 -11 25 0 36 0 37 -22 68
-11 15 -29 27 -41 27 -20 0 -20 0 -1 14 18 14 18 15 -6 24 -14 5 -29 7 -35 4
-5 -3 -7 -2 -3 3 4 4 2 15 -5 23 -8 10 -8 13 -1 9 7 -4 14 0 17 8 4 10 1 12
-11 8 -15 -6 -15 -4 -4 10 16 18 8 37 -15 37 -10 0 -14 -6 -10 -20 3 -11 1
-17 -5 -14 -5 3 -6 20 -3 36 6 24 4 29 -6 22 -10 -6 -10 -3 1 11 14 17 13 17
-10 10 -23 -7 -24 -6 -11 9 8 10 21 14 30 11 12 -5 13 -3 5 5 -9 9 -17 9 -33
1 -12 -7 -21 -10 -22 -9 -7 28 -10 46 -10 61 0 13 -4 16 -12 8 -9 -7 -12 -1
-11 25 1 19 -2 32 -7 29 -4 -3 -7 -11 -5 -18 1 -7 1 -9 -1 -4 -3 4 -10 4 -16
0 -13 -8 12 28 28 39 7 5 6 8 -1 8 -5 0 -16 -6 -23 -12 -10 -11 -11 -10 -6 4
4 11 0 20 -14 27 -14 8 -19 19 -16 41 2 16 0 30 -5 30 -6 0 -10 7 -10 15 0 8
-5 15 -11 15 -5 0 -8 4 -4 9 3 5 1 12 -5 16 -6 4 -8 10 -6 14 3 4 -1 8 -9 8
-13 0 -12 -4 2 -19 9 -10 13 -18 8 -18 -4 0 -2 -6 4 -14 8 -10 9 -16 1 -21 -6
-4 -9 -1 -8 7 2 7 -2 12 -8 11 -7 -1 -10 6 -7 17 3 11 1 20 -5 20 -5 0 -13 7
-16 16 -3 8 -2 12 4 9 6 -3 10 -1 10 4 0 6 -5 11 -11 11 -16 0 -41 28 -30 34
5 3 11 -1 15 -9 3 -8 11 -15 18 -14 10 0 10 2 0 6 -6 2 -10 9 -6 14 3 5 0 9
-6 9 -6 0 -9 4 -6 8 3 5 -1 9 -9 10 -8 1 -21 3 -29 4 -8 1 -12 7 -9 14 2 6 0
15 -6 19 -6 3 -11 15 -11 26 0 14 4 18 13 13 8 -5 7 -2 -2 9 -9 12 -21 15 -35
11 -19 -6 -19 -5 4 15 20 17 21 20 5 12 -22 -10 -24 -5 -28 52 -1 18 -2 18
-15 0 -13 -17 -14 -16 -7 6 5 15 4 21 -3 17 -6 -3 -13 -2 -16 3 -4 5 -1 13 5
17 8 5 9 3 4 -7 -5 -8 -4 -10 0 -6 5 4 10 15 11 24 2 12 0 13 -9 4 -6 -6 -18
-11 -26 -11 -11 0 -10 4 5 16 10 8 13 12 5 8 -11 -5 -13 -3 -8 9 3 9 2 19 -4
22 -5 4 -7 10 -4 15 3 4 -2 10 -10 14 -8 3 -12 12 -9 21 5 11 0 14 -16 13 -29
-4 -50 26 -31 44 11 11 13 10 8 -3 -8 -23 5 -40 23 -29 13 8 12 10 -3 10 -10
0 -15 5 -12 10 12 19 -5 31 -27 19 -11 -6 -18 -7 -14 -1 3 5 -1 15 -9 22 -17
14 -20 30 -4 30 5 0 7 -4 4 -10 -4 -6 1 -7 11 -3 11 4 13 8 6 11 -7 2 -10 8
-7 12 3 5 -7 7 -22 4 -16 -2 -23 -1 -17 3 13 9 15 45 2 37 -5 -3 -5 -10 -2
-16 4 -7 2 -8 -4 -4 -9 5 -9 13 0 29 10 20 10 21 -5 8 -10 -8 -17 -9 -17 -3 0
6 5 14 10 17 6 3 10 11 10 16 0 6 -7 3 -16 -6 -23 -22 -37 -5 -25 28 7 17 7
28 0 32 -5 4 -6 11 -3 17 4 7 2 8 -4 4 -7 -4 -12 -2 -12 3 0 6 -5 11 -12 11
-6 0 -4 -7 5 -18 10 -10 14 -22 10 -27 -5 -4 -2 -5 4 -1 9 5 11 2 7 -9 -6 -14
-8 -14 -19 2 -7 10 -11 21 -8 25 2 5 -3 11 -11 14 -9 3 -13 10 -10 15 3 5 -2
12 -10 15 -9 3 -16 11 -16 16 0 6 7 5 16 -3 18 -15 56 -20 48 -7 -4 5 -12 7
-20 4 -8 -3 -17 1 -20 9 -4 8 -13 15 -21 15 -8 0 -11 5 -8 10 3 6 1 10 -4 10
-6 0 -28 31 -48 70 -21 38 -42 70 -47 70 -4 0 -5 -8 -1 -17z m332 -499 c-4 -4
2 -19 13 -33 13 -20 16 -31 8 -42 -8 -11 -9 -11 -4 4 3 11 0 20 -9 23 -8 4
-12 10 -9 15 3 5 -2 12 -11 15 -13 6 -14 8 -3 15 16 10 24 12 15 3z m275 -516
c-5 -21 -6 -21 -12 -2 -8 21 -3 37 10 29 4 -3 6 -15 2 -27z m188 -288 c0 -5
-2 -10 -4 -10 -3 0 -8 5 -11 10 -3 6 -1 10 4 10 6 0 11 -4 11 -10z m70 -144
c-1 -5 4 -12 11 -17 7 -4 14 -19 15 -33 0 -14 -3 -23 -7 -20 -4 2 -6 13 -4 23
2 11 -3 22 -11 25 -9 3 -13 10 -10 15 4 5 1 12 -4 14 -7 4 -6 5 0 4 7 -2 11
-6 10 -11z m-140 -156 c0 -5 -5 -10 -11 -10 -5 0 -7 5 -4 10 3 6 8 10 11 10 2
0 4 -4 4 -10z m153 -21 c-9 -9 -12 -7 -10 9 1 14 5 18 11 12 7 -7 6 -14 -1
-21z m-50 8 c-4 -7 1 -8 13 -3 15 6 17 5 6 -5 -10 -11 -15 -10 -28 2 -13 14
-13 16 0 16 8 0 12 -5 9 -10z"/>
<path d="M4975 4910 c-3 -5 -1 -10 4 -10 6 0 11 5 11 10 0 6 -2 10 -4 10 -3 0
-8 -4 -11 -10z"/>
<path d="M2117 4703 c-4 -3 -7 -11 -7 -17 0 -6 5 -5 12 2 6 6 9 14 7 17 -3 3
-9 2 -12 -2z"/>
<path d="M4984 4602 c3 -5 0 -13 -6 -15 -9 -4 -10 -6 -1 -6 17 -1 25 16 12 25
-7 4 -9 3 -5 -4z"/>
<path d="M2195 4560 c3 -5 8 -10 11 -10 2 0 4 5 4 10 0 6 -5 10 -11 10 -5 0
-7 -4 -4 -10z"/>
<path d="M4984 4282 c3 -5 0 -13 -6 -15 -9 -4 -10 -6 -1 -6 17 -1 25 16 12 25
-7 4 -9 3 -5 -4z"/>
<path d="M2400 4200 c0 -6 7 -13 15 -16 8 -4 13 -9 10 -13 -2 -4 2 -8 10 -8
19 0 19 0 -10 25 -14 12 -25 17 -25 12z"/>
<path d="M4996 4162 c-3 -5 1 -9 9 -9 8 0 12 4 9 9 -3 4 -7 8 -9 8 -2 0 -6 -4
-9 -8z"/>
<path d="M4986 4127 c3 -10 9 -15 12 -12 3 3 0 11 -7 18 -10 9 -11 8 -5 -6z"/>
<path d="M4990 4020 c-9 -6 -10 -10 -3 -10 6 0 15 5 18 10 8 12 4 12 -15 0z"/>
<path d="M4986 3959 c2 -4 -2 -10 -8 -12 -8 -4 -9 -6 -2 -6 6 -1 17 5 23 12 8
10 7 14 -4 14 -8 0 -12 -4 -9 -8z"/>
<path d="M2560 3940 c-9 -6 -10 -10 -3 -10 6 0 15 5 18 10 8 12 4 12 -15 0z"/>
<path d="M3500 3841 c0 -5 8 -15 18 -22 15 -12 16 -12 5 2 -7 9 -10 19 -6 22
3 4 1 7 -5 7 -7 0 -12 -4 -12 -9z"/>
<path d="M2637 3814 c-3 -4 -2 -14 3 -24 5 -10 6 -21 2 -25 -4 -5 -1 -5 6 -1
8 5 9 13 2 25 -5 10 -6 21 -3 25 3 3 4 6 1 6 -2 0 -8 -3 -11 -6z"/>
<path d="M4986 3807 c3 -10 9 -15 12 -12 3 3 0 11 -7 18 -10 9 -11 8 -5 -6z"/>
<path d="M4984 3642 c3 -5 0 -13 -6 -15 -9 -4 -10 -6 -1 -6 17 -1 25 16 12 25
-7 4 -9 3 -5 -4z"/>
<path d="M2735 3621 c-3 -5 0 -13 6 -17 7 -4 9 -3 5 4 -3 5 0 13 6 15 9 4 10
6 1 6 -6 1 -14 -3 -18 -8z"/>
<path d="M3616 3492 c-2 -4 4 -8 14 -8 10 0 16 4 14 8 -3 4 -9 8 -14 8 -5 0
-11 -4 -14 -8z"/>
<path d="M2855 3400 c-3 -6 1 -7 9 -4 18 7 21 14 7 14 -6 0 -13 -4 -16 -10z"/>
<path d="M2485 3360 c3 -5 8 -10 11 -10 2 0 4 5 4 10 0 6 -5 10 -11 10 -5 0
-7 -4 -4 -10z"/>
<path d="M4184 3355 c1 -8 8 -21 16 -28 12 -10 12 -9 2 4 -6 9 -9 18 -6 21 3
3 1 9 -4 12 -6 3 -9 -1 -8 -9z"/>
<path d="M3115 3339 c-4 -6 -5 -12 -2 -15 2 -3 7 2 10 11 7 17 1 20 -8 4z"/>
<path d="M3270 3330 c0 -5 5 -10 11 -10 5 0 7 5 4 10 -3 6 -8 10 -11 10 -2 0
-4 -4 -4 -10z"/>
<path d="M3320 3331 c0 -6 4 -13 10 -16 6 -3 7 1 4 9 -7 18 -14 21 -14 7z"/>
<path d="M4155 3331 c-3 -5 -2 -12 3 -15 5 -3 9 1 9 9 0 17 -3 19 -12 6z"/>
<path d="M4863 3333 c4 -3 1 -13 -6 -22 -11 -14 -10 -14 5 -2 16 12 16 31 1
31 -4 0 -3 -3 0 -7z"/>
<path d="M3061 3254 c-1 -6 -16 -10 -33 -9 -18 1 -37 0 -43 -2 -11 -4 -13
-489 -2 -500 4 -3 24 -14 46 -23 40 -18 70 -12 56 11 -13 21 -14 79 -1 79 7 0
7 3 1 8 -5 4 -10 14 -10 22 0 8 5 18 10 22 6 5 4 8 -5 8 -13 0 -13 1 0 10 8 5
10 10 4 10 -14 0 -14 60 0 60 6 0 4 5 -4 10 -13 9 -13 10 0 10 9 0 11 3 5 8
-5 4 -10 14 -10 22 0 8 5 18 10 22 6 5 4 8 -5 8 -13 0 -13 1 0 10 8 5 10 10 4
10 -14 0 -14 60 0 60 6 0 4 5 -4 10 -13 9 -13 10 0 10 9 0 11 3 5 8 -5 4 -10
14 -10 22 0 8 5 18 10 22 6 5 6 8 -2 8 -6 0 -10 8 -9 18 2 9 0 26 -5 37 -4 11
-8 15 -8 9z"/>
<path d="M3184 3252 c6 -11 -4 -14 -30 -11 -22 2 -29 -60 -28 -248 0 -140 -3
-203 -10 -203 -8 0 -8 -2 0 -8 6 -4 13 -15 17 -25 9 -23 38 -33 95 -32 26 0
50 -4 54 -10 5 -7 8 -7 8 1 0 6 14 10 30 9 17 -1 30 2 30 6 0 4 9 10 19 14 18
6 20 18 21 220 0 118 -2 225 -6 239 -7 31 -30 39 -115 41 -36 1 -71 5 -79 10
-9 5 -11 4 -6 -3z m99 -71 c4 0 7 -88 7 -195 0 -207 -1 -212 -49 -199 -17 4
-21 13 -21 50 0 32 3 42 13 37 10 -6 10 -4 0 7 -7 7 -13 28 -13 47 0 24 4 31
13 26 10 -6 10 -4 0 7 -7 7 -13 28 -13 47 0 24 4 31 13 26 10 -6 10 -4 0 7
-16 16 -18 83 -2 74 6 -4 5 3 -3 14 -11 18 -11 23 2 31 11 7 11 10 2 10 -7 0
-11 4 -8 9 5 7 25 8 59 2z"/>
<path d="M2680 3240 c-5 -3 -9 -66 -8 -141 l0 -135 27 2 c14 1 35 3 47 3 16 1
20 7 19 34 -2 48 4 57 36 57 22 0 29 -5 29 -20 1 -11 1 -65 1 -120 0 -55 0
-106 -1 -114 0 -17 -22 -26 -48 -19 -16 4 -19 11 -17 34 4 25 -1 32 -23 40
-15 6 -35 15 -44 20 -24 12 -29 -2 -27 -66 3 -62 20 -85 66 -89 15 -1 34 -5
41 -9 6 -5 12 -4 12 0 0 5 21 9 48 8 37 -1 52 4 70 22 24 26 24 25 24 168 -1
195 2 181 -33 196 -37 15 -78 18 -85 7 -3 -4 -15 -8 -27 -8 -19 0 -23 5 -23
34 0 40 6 43 92 41 l61 -1 0 31 0 30 -114 0 c-63 0 -118 -2 -123 -5z"/>
<path d="M3442 3235 c-4 -5 -7 -67 -7 -137 -1 -109 1 -128 15 -129 8 0 28 -2
43 -3 21 -1 29 4 33 19 3 12 4 25 3 31 -6 32 2 44 31 44 17 0 30 -3 31 -7 0
-5 2 -62 2 -127 2 -124 -7 -154 -40 -142 -8 3 -19 6 -23 6 -5 0 -7 15 -5 33 4
32 3 34 -44 48 l-48 15 2 -56 c4 -75 13 -100 39 -101 11 -1 37 -2 56 -2 19 -1
38 -6 42 -12 5 -7 8 -7 8 0 0 6 12 11 28 10 38 -1 71 15 78 39 6 17 7 288 2
333 -1 12 -61 28 -93 24 -11 -1 -28 -3 -37 -4 -10 -1 -18 -5 -18 -9 0 -4 -4
-8 -8 -8 -7 0 -8 27 -3 76 1 8 24 11 71 8 73 -3 85 3 76 39 -5 21 -10 22 -116
22 -65 0 -114 -4 -118 -10z"/>
<path d="M1601 2567 c-5 -12 -12 -37 -16 -55 -4 -19 -11 -30 -17 -26 -6 4 -8
2 -5 -4 6 -8 -213 -684 -278 -862 -7 -19 -48 -141 -90 -270 -43 -129 -82 -246
-88 -260 -6 -14 -11 -29 -12 -35 -2 -5 -6 -22 -10 -37 -7 -27 -6 -28 31 -29
22 -1 41 -1 45 -1 3 0 5 -10 5 -24 0 -13 -3 -24 -6 -24 -4 0 -7 -6 -7 -13 0
-8 6 -14 12 -14 7 0 11 11 9 24 -1 12 3 26 8 30 6 3 8 1 4 -5 -3 -6 3 -13 14
-17 11 -4 18 -10 15 -15 -8 -14 10 -20 25 -8 12 8 12 9 -2 4 -25 -8 -22 1 3
15 12 6 19 7 16 2 -3 -5 -2 -15 4 -23 7 -12 9 -10 9 8 0 12 5 22 11 22 6 0 8
-9 4 -22 -3 -13 -3 -18 2 -12 13 18 53 28 50 12 -2 -7 -2 -10 0 -5 3 4 10 4
15 1 6 -4 8 -2 5 3 -4 6 0 14 9 17 8 3 12 2 9 -4 -3 -6 0 -10 7 -11 7 0 23 -2
35 -3 17 -2 20 0 12 10 -8 9 -5 11 10 7 12 -3 19 -9 16 -13 -3 -5 0 -12 6 -16
7 -4 9 -3 5 4 -4 7 1 10 14 9 11 -1 20 -6 20 -12 0 -5 4 -4 9 4 6 8 14 10 22
5 20 -12 40 -14 33 -3 -3 5 -1 9 5 9 5 0 13 -5 16 -10 8 -14 28 -1 22 14 -3 7
6 12 23 11 16 0 26 -3 24 -6 -2 -3 7 -11 20 -17 18 -8 23 -7 23 4 0 7 -4 11
-8 8 -4 -2 -10 0 -14 5 -5 10 7 9 53 -5 18 -5 21 -3 16 10 -3 9 -11 13 -17 9
-6 -4 -7 -1 -2 7 6 10 11 9 21 -5 7 -10 11 -21 9 -26 -3 -4 0 -11 6 -15 8 -4
9 -3 5 4 -4 7 -2 12 4 12 6 0 9 4 6 9 -3 5 1 14 8 21 12 9 17 7 24 -7 5 -10 7
-25 5 -33 -3 -9 -1 -11 4 -5 15 18 47 41 39 28 -4 -8 -2 -13 8 -13 10 0 13 7
11 20 -2 11 0 18 5 15 9 -6 8 -24 -3 -42 -5 -7 -4 -13 1 -13 5 0 14 10 21 22
6 13 9 15 7 6 -3 -10 -1 -20 5 -23 5 -4 8 -1 7 6 -2 6 3 14 11 17 10 3 11 0 5
-9 -5 -9 1 -8 19 4 15 9 27 14 27 11 0 -4 10 1 23 12 l22 19 -19 -22 c-10 -13
-24 -20 -30 -16 -6 4 -2 -3 8 -15 21 -24 36 -31 17 -8 -9 11 -5 13 24 12 19 0
35 -5 35 -11 0 -5 5 -3 10 5 5 8 10 11 10 6 0 -5 8 -2 17 5 10 8 14 9 10 2 -4
-6 -2 -15 4 -19 8 -4 9 -3 5 4 -4 7 -3 12 3 12 5 0 12 -6 14 -12 4 -10 6 -10
6 0 1 9 6 10 19 3 14 -7 19 -6 19 4 0 7 -7 11 -16 8 -13 -4 -13 -3 -2 5 14 10
49 0 79 -21 8 -6 12 -5 12 3 0 7 8 10 20 7 11 -3 23 0 27 5 4 7 1 8 -7 3 -9
-5 -11 -4 -6 3 5 8 15 8 34 1 15 -6 28 -9 29 -7 1 2 5 -1 10 -6 5 -6 2 -6 -7
-1 -13 8 -13 7 -1 -8 18 -22 20 -22 17 7 -2 17 1 23 13 21 9 -2 22 -4 29 -4 7
-1 11 -5 7 -10 -3 -5 0 -13 6 -17 8 -4 9 -3 5 4 -10 16 27 10 49 -8 14 -11 16
-11 13 1 -2 8 4 13 15 13 13 -2 15 1 7 11 -8 10 -3 11 22 8 18 -3 38 -5 45 -6
6 0 9 -7 6 -16 -4 -13 -3 -13 5 -2 12 16 35 5 25 -12 -5 -8 -2 -8 9 0 8 7 17
10 20 7 3 -2 8 2 12 11 5 13 2 14 -15 4 -17 -9 -20 -8 -14 2 5 7 4 10 -3 5 -6
-3 -13 -2 -16 2 -11 17 79 3 91 -15 12 -15 13 -15 13 0 0 9 -7 20 -16 25 -10
6 -13 12 -6 16 5 3 13 -1 16 -10 3 -8 11 -12 17 -8 8 4 9 -1 4 -17 -3 -13 -3
-19 2 -13 13 18 53 28 50 12 -2 -7 -2 -10 0 -5 3 4 10 4 15 1 6 -4 8 -2 5 3
-4 6 0 14 9 17 8 3 12 2 9 -4 -3 -6 0 -10 7 -11 7 0 23 -2 35 -3 17 -2 20 0
12 10 -8 9 -5 11 10 7 12 -3 19 -9 16 -13 -3 -5 0 -12 6 -16 7 -4 9 -3 5 4 -4
7 1 10 14 9 11 -1 20 -6 20 -12 0 -5 4 -4 9 4 6 8 14 10 22 5 20 -12 40 -14
33 -3 -3 5 -1 9 5 9 5 0 13 -5 16 -10 8 -14 28 -1 22 14 -3 7 6 12 23 11 16 0
26 -3 24 -6 -2 -3 7 -11 20 -17 18 -8 23 -7 23 4 0 7 -4 11 -8 8 -4 -2 -10 0
-14 5 -5 10 7 9 53 -5 18 -5 21 -3 16 10 -3 9 -11 13 -17 9 -6 -4 -7 -1 -2 7
6 10 11 9 21 -5 7 -10 11 -21 9 -26 -3 -4 0 -11 6 -15 8 -4 9 -3 5 4 -4 7 -2
12 4 12 6 0 9 4 6 9 -3 5 1 14 8 21 12 9 17 7 24 -7 5 -10 7 -25 5 -33 -3 -9
-1 -11 4 -5 15 18 47 41 39 28 -4 -8 -2 -13 8 -13 10 0 13 7 11 20 -2 11 0 18
5 15 9 -6 8 -24 -3 -42 -5 -7 -4 -13 1 -13 5 0 14 10 21 23 6 12 9 14 7 5 -3
-10 -1 -20 5 -23 5 -4 8 -1 7 6 -2 6 3 14 11 17 10 3 11 0 5 -9 -5 -9 1 -8 19
4 15 9 27 14 27 11 0 -4 10 1 23 12 l22 19 -19 -22 c-10 -13 -24 -20 -30 -16
-6 4 -2 -3 8 -15 21 -24 36 -31 17 -8 -9 11 -5 13 24 12 19 0 35 -5 35 -11 0
-5 5 -3 10 5 5 8 10 11 10 6 0 -5 8 -2 17 5 10 8 14 9 10 2 -4 -6 -2 -15 4
-19 8 -4 9 -3 5 4 -4 7 -3 12 3 12 5 0 12 -6 14 -12 4 -10 6 -10 6 0 1 9 6 10
19 3 14 -7 19 -6 19 4 0 7 -7 11 -16 8 -13 -4 -13 -3 -2 5 14 10 49 0 79 -21
8 -6 12 -5 12 3 0 7 8 10 20 7 11 -3 23 0 27 5 4 7 1 8 -7 3 -9 -5 -11 -4 -6
3 5 8 15 8 34 1 15 -6 29 -10 30 -9 2 1 7 -2 10 -6 4 -4 0 -3 -8 1 -13 8 -13
7 -1 -8 18 -22 20 -22 17 7 -2 17 1 23 13 21 9 -2 22 -4 29 -4 7 -1 11 -5 7
-10 -3 -5 0 -13 6 -17 8 -4 9 -3 5 4 -8 14 20 12 43 -2 10 -6 12 -5 7 2 -6 11
6 16 27 13 4 0 7 2 7 7 0 4 13 8 29 8 20 1 32 -5 40 -20 11 -20 11 -20 8 -1
-3 15 2 21 14 22 11 1 19 -3 19 -8 0 -6 -4 -7 -10 -4 -5 3 -7 0 -4 -9 5 -12 9
-11 25 5 20 20 46 17 67 -9 11 -14 12 -14 12 1 0 10 -7 20 -15 23 -8 4 -12 10
-9 15 3 5 16 -4 29 -19 13 -16 31 -29 39 -29 8 0 14 3 12 6 -6 10 19 28 35 26
9 -2 16 3 16 10 0 16 -37 11 -48 -7 -11 -17 -36 -18 -36 -2 0 8 5 10 11 5 14
-10 43 20 40 42 -1 10 2 15 7 11 5 -3 7 -10 4 -15 -4 -5 -1 -9 4 -9 14 0 13
11 -3 33 -13 17 -32 25 -22 9 6 -11 -21 -52 -35 -52 -5 0 0 9 12 21 20 20 20
22 3 40 -9 10 -12 19 -6 19 6 0 13 -6 15 -12 3 -8 6 -6 6 5 1 9 -3 18 -9 18
-5 1 -15 2 -22 3 -15 1 -22 23 -9 31 7 4 9 -1 5 -12 -5 -15 -4 -15 4 -3 8 10
8 18 1 27 -6 7 -8 17 -4 23 4 6 1 9 -5 8 -7 -2 -14 5 -15 16 -2 10 -9 24 -16
30 -9 8 -10 6 -5 -8 7 -19 6 -19 -13 -2 -17 15 -18 22 -9 40 10 19 10 20 -6 7
-16 -13 -17 -13 -14 5 1 10 7 22 11 25 5 3 -4 14 -20 24 -26 17 -27 17 -13 1
17 -22 22 -46 8 -46 -5 0 -8 6 -5 13 2 6 -7 25 -22 42 -14 16 -18 23 -8 16 18
-14 22 -5 8 18 -5 7 -13 11 -19 7 -6 -3 -14 -1 -18 5 -4 8 -3 9 4 5 7 -4 12
-2 12 4 0 6 6 8 13 5 6 -4 -4 7 -23 23 -19 17 -37 29 -41 27 -6 -4 -7 4 -10
50 -1 21 -6 25 -23 20 -11 -2 -15 -2 -8 1 6 3 9 11 6 16 -4 6 -3 8 3 5 5 -3
10 0 10 8 0 15 -10 19 -34 16 -7 -1 -13 3 -13 9 0 5 6 10 14 10 8 0 18 5 22
12 4 7 3 8 -4 4 -7 -4 -12 -2 -12 3 0 6 -5 11 -11 11 -5 0 -7 -4 -4 -10 14
-23 -5 -7 -28 23 -17 23 -21 34 -12 34 8 0 11 -5 8 -10 -4 -6 -1 -7 6 -2 9 5
7 12 -9 27 -18 17 -19 22 -8 36 10 13 8 13 -9 -1 -16 -14 -23 -15 -29 -6 -4 7
-3 10 3 6 20 -12 21 31 2 49 -11 9 -17 19 -14 22 2 2 -3 18 -11 34 -9 17 -18
27 -22 24 -3 -4 0 -12 6 -18 16 -16 15 -25 -2 -25 -8 0 -12 6 -8 15 4 11 1 14
-10 9 -14 -5 -15 -3 -2 21 12 24 12 28 -9 38 -12 7 -26 10 -31 7 -5 -4 -6 -1
-2 6 4 6 0 14 -9 17 -13 6 -14 8 -3 15 11 7 10 11 -2 19 -8 5 -19 11 -25 13
-6 2 -4 11 5 22 14 17 13 17 -10 11 -19 -6 -21 -5 -10 3 13 10 13 11 0 11 -11
0 -12 2 -3 8 9 5 6 11 -9 21 -18 11 -20 11 -15 -4 4 -10 3 -14 -4 -10 -5 4 -7
16 -3 27 4 15 3 18 -6 13 -9 -6 -11 -4 -5 5 6 10 12 7 25 -10 13 -17 19 -20
25 -10 5 9 4 11 -3 6 -7 -4 -13 -2 -13 3 -1 6 -3 16 -4 21 -1 6 -3 15 -4 21 0
6 -8 3 -17 -5 -23 -24 -28 -19 -10 9 12 18 13 24 4 23 -8 -2 -12 5 -10 17 2
16 1 17 -7 5 -7 -10 -6 -19 2 -30 10 -13 10 -13 -4 -3 -9 7 -20 9 -24 5 -5 -4
-5 -2 -2 5 4 6 4 13 0 16 -5 2 -2 2 5 1 6 -2 12 4 12 12 0 11 -6 14 -16 10
-10 -4 -13 -2 -8 6 5 8 1 9 -12 4 -10 -4 -15 -4 -11 0 4 4 1 14 -6 23 -9 12
-7 11 13 -2 13 -9 29 -17 35 -17 5 0 2 5 -8 11 -9 6 -14 15 -11 21 5 7 2 8 -5
4 -8 -5 -11 -3 -10 5 2 8 -3 24 -10 37 -9 18 -15 21 -26 12 -10 -8 -15 -8 -21
1 -4 7 -3 9 2 6 6 -3 16 3 23 15 7 11 8 17 2 13 -6 -3 -11 -1 -11 5 0 7 -8 9
-22 4 -20 -6 -21 -5 -9 10 9 11 10 20 3 29 -6 6 -10 16 -10 22 0 5 -6 11 -14
13 -9 2 -8 0 2 -7 13 -9 13 -11 1 -11 -11 0 -10 -4 4 -13 14 -11 15 -16 5 -22
-9 -5 -11 -4 -6 3 4 7 1 12 -8 12 -20 0 -16 38 5 51 9 6 3 7 -19 4 -19 -2 -30
0 -26 6 3 5 9 7 14 4 5 -3 11 -1 15 5 4 6 -5 10 -19 10 -30 0 -33 12 -9 36 16
16 16 16 -2 11 -11 -4 -27 -2 -35 4 -13 9 -12 10 2 5 10 -3 20 0 24 6 5 7 2 8
-6 3 -10 -6 -12 -4 -7 8 3 9 -1 21 -11 29 -11 9 -14 9 -8 1 5 -9 2 -11 -8 -7
-8 3 -12 12 -9 20 3 8 10 11 17 7 6 -3 7 -2 3 2 -12 14 -38 15 -31 2 4 -7 -5
1 -20 17 -14 16 -26 33 -26 38 0 33 -25 36 -314 37 -220 0 -287 -3 -283 -12 2
-7 37 -111 77 -232 40 -121 96 -291 126 -377 l52 -158 -26 -1 c-49 -1 -596 0
-632 1 -19 1 -29 4 -23 7 10 3 10 10 2 25 -8 15 -7 24 4 36 8 9 13 25 12 35
-2 9 1 17 6 17 5 0 9 5 9 11 0 5 -6 7 -12 3 -7 -4 -2 5 12 20 13 14 30 24 38
21 8 -3 10 0 6 6 -4 6 0 15 7 20 10 6 10 9 2 9 -7 0 -10 6 -7 14 3 8 1 17 -4
20 -5 3 -8 -6 -6 -19 1 -14 -2 -25 -6 -25 -5 0 -7 12 -5 28 1 15 8 26 14 25
15 -4 14 25 -1 30 -7 2 -3 3 8 1 31 -5 51 21 27 35 -14 8 -16 12 -5 22 6 7 12
17 12 22 0 4 -6 5 -12 1 -7 -4 -10 -4 -6 1 4 4 2 15 -4 24 -7 9 -2 7 11 -4
l23 -20 -5 33 c-4 25 -1 35 14 43 12 6 17 15 12 22 -4 7 -8 18 -9 25 -2 10 1
10 12 1 7 -6 11 -15 8 -20 -3 -5 0 -9 6 -9 7 0 10 6 7 14 -3 8 -3 17 1 20 3 4
6 19 7 34 0 15 5 26 10 25 6 -1 11 20 12 45 2 63 1 62 14 62 8 0 8 -4 0 -13
-8 -10 -7 -14 4 -14 8 0 12 4 9 9 -3 4 1 8 8 8 9 0 9 3 -2 10 -13 9 -13 11 0
20 10 6 11 10 3 10 -7 0 -10 7 -7 15 4 8 1 15 -6 15 -6 0 -8 -4 -5 -10 3 -5
-1 -10 -10 -10 -9 0 -14 4 -10 9 3 5 1 12 -4 15 -5 4 -13 1 -17 -5 -4 -8 -3
-9 4 -5 17 10 15 1 -2 -13 -11 -10 -13 -4 -10 33 l5 45 -431 0 -431 -1 -8 -21z
m913 -79 c-3 -4 -12 -4 -21 -1 -11 4 -14 3 -9 -5 4 -7 2 -12 -3 -12 -12 0 -15
13 -5 23 9 8 44 4 38 -5z m-64 -8 c0 -5 -5 -10 -11 -10 -5 0 -7 5 -4 10 3 6 8
10 11 10 2 0 4 -4 4 -10z m955 -30 c-3 -5 -12 -10 -18 -10 -7 0 -6 4 3 10 19
12 23 12 15 0z m-915 -30 c0 -5 -5 -10 -11 -10 -5 0 -7 5 -4 10 3 6 8 10 11
10 2 0 4 -4 4 -10z m-17 -33 c3 -8 -1 -14 -8 -14 -7 0 -11 6 -8 14 3 7 6 13 8
13 2 0 5 -6 8 -13z m1054 -153 c-3 -3 -12 -4 -19 -1 -8 3 -5 6 6 6 11 1 17 -2
13 -5z m35 -61 c-8 -11 -16 -4 -18 17 -4 23 -3 24 8 5 6 -11 11 -21 10 -22z
m-1197 -1 c-3 -3 -11 0 -18 7 -9 10 -8 11 6 5 10 -3 15 -9 12 -12z m45 -56 c0
-3 -4 -8 -10 -11 -5 -3 -10 -1 -10 4 0 6 5 11 10 11 6 0 10 -2 10 -4z m-165
-265 c3 -5 2 -12 -3 -15 -5 -3 -9 1 -9 9 0 17 3 19 12 6z m39 -9 c3 -5 -1 -9
-9 -9 -8 0 -12 4 -9 9 3 4 7 8 9 8 2 0 6 -4 9 -8z m1486 -39 c0 -7 -4 -13 -9
-13 -5 0 -11 6 -14 13 -3 8 1 14 9 14 8 0 14 -6 14 -14z m47 -70 c-4 -3 2 -17
14 -29 12 -13 16 -24 10 -28 -5 -4 -12 3 -16 14 -4 11 -11 17 -17 14 -7 -4 -8
-2 -4 4 4 7 1 12 -6 12 -9 0 -9 3 2 10 17 11 26 13 17 3z m331 -580 c-1 -5 3
-19 10 -33 12 -22 11 -23 -1 -8 -8 10 -18 14 -22 10 -5 -4 -5 -1 -1 6 4 7 2
12 -6 12 -9 0 -9 3 2 10 18 12 21 12 18 3z m-2921 -170 c-4 -3 -2 -11 3 -18 7
-8 5 -12 -4 -12 -8 0 -12 7 -11 16 5 22 4 21 12 21 3 0 3 -3 0 -7z m98 -11
c-3 -3 -11 0 -18 7 -9 10 -8 11 6 5 10 -3 15 -9 12 -12z m276 1 c13 -16 12
-17 -3 -4 -17 13 -22 21 -14 21 2 0 10 -8 17 -17z m106 2 c0 -8 -4 -12 -9 -9
-5 3 -6 10 -3 15 9 13 12 11 12 -6z m380 -23 c0 -12 -10 -18 -29 -19 -15 0
-28 3 -28 8 0 4 9 6 20 4 26 -5 35 12 18 33 -12 15 -11 16 4 4 9 -7 16 -21 15
-30z m100 23 c0 -8 -4 -12 -9 -9 -5 3 -6 10 -3 15 9 13 12 11 12 -6z m98 -3
c-3 -3 -11 0 -18 7 -9 10 -8 11 6 5 10 -3 15 -9 12 -12z m382 3 c0 -8 -4 -12
-9 -9 -5 3 -6 10 -3 15 9 13 12 11 12 -6z m98 -3 c-3 -3 -11 0 -18 7 -9 10 -8
11 6 5 10 -3 15 -9 12 -12z m276 1 c13 -16 12 -17 -3 -4 -17 13 -22 21 -14 21
2 0 10 -8 17 -17z m106 2 c0 -8 -4 -12 -9 -9 -5 3 -6 10 -3 15 9 13 12 11 12
-6z m380 -23 c0 -12 -10 -18 -29 -19 -15 0 -28 3 -28 8 0 4 9 6 20 4 26 -5 35
12 18 33 -12 15 -11 16 4 4 9 -7 16 -21 15 -30z m100 23 c0 -8 -4 -12 -9 -9
-5 3 -6 10 -3 15 9 13 12 11 12 -6z m98 -3 c-3 -3 -11 0 -18 7 -9 10 -8 11 6
5 10 -3 15 -9 12 -12z m276 1 c13 -16 12 -17 -3 -4 -10 7 -18 15 -18 17 0 8 8
3 21 -13z m106 2 c0 -8 -4 -12 -9 -9 -5 3 -6 10 -3 15 9 13 12 11 12 -6z
m-2701 -31 c1 -9 0 -13 -4 -10 -3 4 -7 14 -8 22 -1 9 0 13 4 10 3 -4 7 -14 8
-22z m539 16 c3 -5 1 -10 -4 -10 -6 0 -11 5 -11 10 0 6 2 10 4 10 3 0 8 -4 11
-10z m298 -13 c4 3 7 1 7 -5 0 -17 -20 -15 -26 3 -4 8 -11 12 -17 8 -6 -4 -7
-1 -2 7 6 10 11 10 20 -3 7 -9 15 -14 18 -10z m87 13 c0 -5 -2 -10 -4 -10 -3
0 -8 5 -11 10 -3 6 -1 10 4 10 6 0 11 -4 11 -10z m240 0 c0 -5 -2 -10 -4 -10
-3 0 -8 5 -11 10 -3 6 -1 10 4 10 6 0 11 -4 11 -10z m276 -16 c1 -9 0 -13 -4
-10 -3 4 -7 14 -8 22 -1 9 0 13 4 10 3 -4 7 -14 8 -22z m539 16 c3 -5 1 -10
-4 -10 -6 0 -11 5 -11 10 0 6 2 10 4 10 3 0 8 -4 11 -10z m298 -13 c4 3 7 1 7
-5 0 -17 -20 -15 -26 3 -4 8 -11 12 -17 8 -6 -4 -7 -1 -2 7 6 10 11 10 20 -3
7 -9 15 -14 18 -10z m87 13 c0 -5 -2 -10 -4 -10 -3 0 -8 5 -11 10 -3 6 -1 10
4 10 6 0 11 -4 11 -10z m157 -8 c-17 -18 -51 -27 -41 -10 3 5 9 6 14 3 4 -3
13 2 20 10 7 8 15 15 18 15 3 0 -2 -8 -11 -18z m-2412 -11 c-9 -8 -36 -10 -30
-2 2 4 11 8 20 8 8 0 13 -3 10 -6z m55 5 c0 -2 -6 -9 -14 -15 -11 -9 -16 -9
-22 0 -4 8 -3 9 4 5 7 -4 12 -2 12 3 0 6 5 11 10 11 6 0 10 -2 10 -4z m24 -12
c3 -8 2 -12 -4 -9 -6 3 -10 10 -10 16 0 14 7 11 14 -7z m546 6 c0 -5 -2 -10
-4 -10 -3 0 -8 5 -11 10 -3 6 -1 10 4 10 6 0 11 -4 11 -10z m350 0 c0 -14 -18
-21 -25 -10 -4 6 -11 7 -17 4 -6 -4 -8 -3 -5 2 7 12 47 15 47 4z m465 1 c-9
-8 -36 -10 -30 -2 2 4 11 8 20 8 8 0 13 -3 10 -6z m55 5 c0 -2 -6 -9 -14 -15
-11 -9 -16 -9 -22 0 -4 8 -3 9 4 5 7 -4 12 -2 12 3 0 6 5 11 10 11 6 0 10 -2
10 -4z m24 -12 c3 -8 2 -12 -4 -9 -6 3 -10 10 -10 16 0 14 7 11 14 -7z m546 6
c0 -5 -2 -10 -4 -10 -3 0 -8 5 -11 10 -3 6 -1 10 4 10 6 0 11 -4 11 -10z"/>
<path d="M3500 2585 c0 -1 20 -38 44 -81 25 -43 42 -82 39 -88 -3 -6 -3 -8 2
-4 8 8 131 -200 127 -214 -1 -5 2 -8 6 -8 10 0 37 -50 34 -62 -1 -5 2 -8 7 -8
8 0 24 -34 24 -50 0 -3 8 -11 19 -19 11 -7 17 -19 14 -27 -3 -8 -2 -14 3 -14
4 0 14 -12 21 -27 8 -16 20 -36 28 -45 8 -9 11 -22 6 -29 -4 -7 -3 -10 3 -6 6
4 16 -6 22 -21 7 -15 23 -45 36 -67 12 -22 23 -44 23 -49 0 -5 4 -12 9 -15 16
-11 63 -91 63 -106 0 -8 3 -15 8 -15 4 0 18 -21 32 -47 13 -27 27 -50 30 -53
4 -3 12 -20 19 -37 8 -18 18 -33 23 -33 6 0 8 -7 4 -15 -3 -8 -1 -15 4 -15 5
0 19 -18 30 -40 11 -22 17 -40 13 -40 -4 0 1 -6 10 -12 9 -7 17 -20 19 -28 2
-8 8 -20 14 -26 6 -7 45 -73 88 -148 42 -75 79 -136 81 -136 1 0 6 7 9 16 3 8
2 12 -4 9 -14 -8 -13 8 1 22 6 6 19 9 28 7 9 -3 5 1 -8 9 -14 8 -25 26 -27 41
-1 14 1 24 7 21 5 -3 6 1 3 9 -10 27 -23 17 -19 -14 2 -16 1 -30 -4 -30 -4 0
-8 6 -8 13 -1 22 -8 42 -18 49 -6 5 -5 8 2 8 7 0 10 6 7 14 -4 10 0 14 13 12
10 -2 12 -1 6 1 -7 3 -13 10 -13 16 0 7 -7 3 -15 -7 -8 -11 -15 -16 -15 -10 1
18 25 41 40 36 11 -4 10 -1 -3 12 -9 10 -14 22 -11 28 4 7 2 8 -4 4 -6 -4 -9
-13 -5 -21 3 -10 -1 -15 -13 -15 -11 0 -15 3 -9 8 12 8 12 48 0 77 -8 18 -7
19 11 5 18 -14 18 -14 1 6 -9 11 -14 23 -11 27 3 3 -3 3 -15 0 -15 -4 -21 -1
-21 11 0 9 5 16 11 16 5 0 7 -5 3 -12 -4 -7 -3 -8 4 -4 17 10 15 26 -3 26 -8
0 -15 5 -15 11 0 8 -6 7 -17 -2 -16 -13 -17 -12 -5 3 8 9 21 15 30 12 9 -3 6
1 -8 9 -14 9 -28 13 -32 11 -15 -9 -8 4 9 17 15 12 16 12 8 -1 -4 -8 -5 -12 0
-8 4 4 15 2 24 -4 12 -10 12 -8 -1 8 -10 11 -14 24 -10 30 4 5 5 8 3 7 -2 -2
-11 3 -20 10 -14 11 -14 10 -2 -5 9 -12 10 -18 2 -18 -6 0 -12 5 -12 10 -1 6
-2 16 -3 23 -1 6 -8 11 -15 9 -7 -1 -10 2 -7 7 4 5 3 11 -1 14 -5 2 -3 3 4 1
13 -3 25 34 13 41 -5 3 -7 18 -4 33 3 18 1 22 -4 14 -7 -11 -10 -10 -16 3 -9
24 -8 27 7 19 6 -4 3 2 -7 14 -20 23 -32 30 -21 12 3 -6 -1 -7 -9 -4 -13 5
-12 9 7 26 l22 19 -22 -10 c-26 -13 -44 -14 -24 -2 17 11 26 51 12 51 -6 0 -8
-9 -6 -20 2 -11 -1 -20 -7 -20 -5 0 -8 6 -5 14 3 8 -4 24 -16 37 -15 16 -17
21 -5 17 11 -5 18 0 21 13 3 10 1 17 -4 14 -4 -3 -18 13 -29 36 -16 31 -19 44
-10 53 8 8 10 6 5 -9 -6 -17 -5 -18 5 -5 10 13 11 12 7 -6 -2 -11 2 -29 9 -39
8 -10 14 -14 14 -8 0 7 -4 14 -10 18 -5 3 -7 12 -3 20 6 18 -15 47 -29 39 -6
-4 -8 7 -5 30 3 21 0 39 -7 46 -9 7 -13 5 -13 -5 0 -8 4 -12 8 -10 4 3 6 -3 5
-12 -2 -9 -9 -19 -17 -21 -11 -3 -11 -1 1 7 14 10 13 12 -9 15 -5 0 -13 5 -18
9 -4 5 -1 7 7 5 11 -2 14 4 12 25 -2 15 2 35 9 43 7 8 8 14 3 13 -5 -1 -18 -1
-29 0 -15 1 -17 3 -7 10 11 6 10 10 -4 15 -9 3 -14 9 -10 13 3 3 -1 17 -10 31
-9 13 -11 21 -5 18 11 -7 12 -6 16 31 2 19 -1 21 -17 12 -14 -7 -18 -7 -16 3
2 7 -2 12 -9 11 -7 -2 -10 4 -7 12 4 8 10 15 16 15 5 0 7 -4 3 -9 -3 -5 -2
-12 3 -15 4 -2 8 3 9 13 1 9 -8 21 -20 26 -11 6 -23 17 -25 25 -3 9 2 7 11 -5
15 -19 15 -18 8 15 -4 20 -7 43 -5 52 1 10 -4 22 -12 29 -8 6 -11 15 -8 20 7
12 -19 7 -29 -6 -5 -6 -7 -4 -4 5 2 8 0 23 -5 34 -7 12 -7 16 0 12 5 -3 12 1
16 9 3 8 1 17 -5 20 -5 4 -7 10 -4 14 2 5 -6 7 -19 6 -20 -3 -22 1 -21 32 0
20 -6 39 -15 46 -13 11 -13 10 -1 -5 9 -13 10 -18 2 -18 -7 0 -18 15 -26 34
l-15 35 -190 0 c-104 0 -190 -2 -190 -4z m475 -145 c3 -6 -1 -7 -9 -4 -18 7
-21 14 -7 14 6 0 13 -4 16 -10z m41 -115 c-1 -8 -6 -18 -11 -22 -4 -5 -5 -2 0
6 6 11 4 13 -11 8 -18 -7 -18 -7 0 8 11 8 14 15 8 15 -7 0 -12 5 -12 11 0 8 4
8 14 0 8 -7 13 -18 12 -26z m219 -675 c-4 -6 1 -22 9 -35 9 -14 14 -25 10 -25
-4 0 0 -8 7 -17 10 -12 10 -15 1 -9 -26 16 -48 96 -26 96 3 0 2 -5 -1 -10z
m94 -332 c-5 -10 -11 -18 -12 -18 -2 0 -3 8 -3 18 0 10 6 19 13 19 8 0 9 -6 2
-19z m14 -43 c-7 -21 -12 -19 -10 4 0 11 5 18 9 15 4 -3 5 -11 1 -19z m67
-216 c0 -5 -4 -9 -10 -9 -5 0 -10 7 -10 16 0 8 5 12 10 9 6 -3 10 -10 10 -16z"/>
<path d="M3347 2529 c7 -7 15 -10 18 -7 3 3 -2 9 -12 12 -14 6 -15 5 -6 -5z"/>
<path d="M3946 2511 c-4 -6 -3 -18 2 -27 8 -15 10 -14 16 2 8 20 -8 42 -18 25z"/>
<path d="M2510 2420 c0 -5 5 -10 11 -10 5 0 7 5 4 10 -3 6 -8 10 -11 10 -2 0
-4 -4 -4 -10z"/>
<path d="M3980 2400 c0 -6 7 -10 15 -10 8 0 15 2 15 4 0 2 -7 6 -15 10 -8 3
-15 1 -15 -4z"/>
<path d="M3440 2390 c-9 -6 -10 -10 -3 -10 6 0 15 5 18 10 8 12 4 12 -15 0z"/>
<path d="M2444 2245 c-4 -8 -10 -13 -14 -10 -11 7 -6 -22 5 -32 4 -4 5 -2 1 5
-4 6 -2 12 3 12 6 0 11 6 11 14 0 8 6 17 13 19 9 4 9 6 -1 6 -7 1 -15 -6 -18
-14z"/>
<path d="M2417 2164 c-22 -29 -18 -31 12 -5 12 11 18 21 14 24 -4 3 -16 -6
-26 -19z"/>
<path d="M4083 2095 c0 -8 4 -12 9 -9 4 3 8 9 8 15 0 5 -4 9 -8 9 -5 0 -9 -7
-9 -15z"/>
<path d="M4116 2073 c-6 -14 -5 -15 5 -6 7 7 10 15 7 18 -3 3 -9 -2 -12 -12z"/>
<path d="M2390 2049 c0 -5 5 -7 10 -4 6 3 10 8 10 11 0 2 -4 4 -10 4 -5 0 -10
-5 -10 -11z"/>
<path d="M2341 1966 c-7 -8 -8 -17 -3 -20 6 -3 12 3 15 14 6 24 4 25 -12 6z"/>
<path d="M2327 1916 c-6 -14 1 -26 14 -26 4 0 7 9 6 20 -1 23 -12 26 -20 6z"/>
<path d="M3712 1921 c-11 -7 -11 -9 0 -14 9 -3 15 1 15 9 0 8 -1 14 -1 14 -1
0 -7 -4 -14 -9z"/>
<path d="M3737 1876 c-3 -8 2 -20 11 -27 14 -11 15 -11 5 0 -6 7 -9 20 -6 27
3 8 3 14 0 14 -3 0 -7 -6 -10 -14z"/>
<path d="M2304 1869 c-3 -6 -1 -16 6 -22 10 -9 11 -9 6 0 -3 6 2 16 11 22 16
9 16 10 1 11 -9 0 -20 -5 -24 -11z"/>
<path d="M4190 1759 c0 -5 5 -7 10 -4 6 3 10 8 10 11 0 2 -4 4 -10 4 -5 0 -10
-5 -10 -11z"/>
<path d="M3898 1583 c6 -2 9 -10 6 -15 -4 -7 -2 -8 5 -4 13 9 5 26 -12 25 -9
0 -8 -2 1 -6z"/>
<path d="M4270 1526 c0 -2 7 -7 16 -10 8 -3 12 -2 9 4 -6 10 -25 14 -25 6z"/>
<path d="M3979 1437 c6 -8 9 -16 6 -19 -3 -3 4 -13 15 -23 24 -21 27 -14 4 9
-9 10 -11 16 -4 16 7 0 6 6 -4 15 -18 19 -33 20 -17 2z"/>
<path d="M4385 1160 c-3 -6 1 -7 9 -4 18 7 21 14 7 14 -6 0 -13 -4 -16 -10z"/>
<path d="M4425 1099 c-4 -6 -5 -12 -2 -15 2 -3 7 2 10 11 7 17 1 20 -8 4z"/>
<path d="M4426 1002 c-3 -5 1 -9 9 -9 8 0 12 4 9 9 -3 4 -7 8 -9 8 -2 0 -6 -4
-9 -8z"/>
<path d="M1136 967 c3 -10 9 -15 12 -12 3 3 0 11 -7 18 -10 9 -11 8 -5 -6z"/>
<path d="M1789 960 c0 -3 -2 -13 -4 -22 -2 -10 2 -21 7 -25 6 -3 8 -1 4 5 -3
5 -2 12 4 14 6 2 6 8 0 18 -5 8 -10 13 -11 10z"/>
<path d="M3229 960 c0 -3 -2 -13 -4 -22 -2 -10 2 -21 7 -25 6 -3 8 -1 4 5 -3
5 -2 12 4 14 6 2 6 8 0 18 -5 8 -10 13 -11 10z"/>
<path d="M1185 930 c3 -5 8 -10 11 -10 2 0 4 5 4 10 0 6 -5 10 -11 10 -5 0 -7
-4 -4 -10z"/>
<path d="M1623 925 c0 -8 4 -12 9 -9 5 3 6 10 3 15 -9 13 -12 11 -12 -6z"/>
<path d="M2531 933 c-1 -18 13 -23 29 -11 12 8 12 9 -2 5 -9 -3 -19 -1 -22 6
-3 9 -5 9 -5 0z"/>
<path d="M3063 925 c0 -8 4 -12 9 -9 5 3 6 10 3 15 -9 13 -12 11 -12 -6z"/>
<path d="M3960 931 c-8 -6 -17 -8 -20 -6 -4 2 -7 -2 -7 -10 0 -10 4 -12 12 -5
7 5 14 7 17 4 3 -2 8 2 11 11 7 17 7 18 -13 6z"/>
<path d="M3990 924 c0 -8 5 -12 10 -9 6 4 8 11 5 16 -9 14 -15 11 -15 -7z"/>
<path d="M4081 931 c-8 -5 -9 -11 -3 -15 5 -3 12 1 16 9 6 17 6 18 -13 6z"/>
<path d="M2665 920 c-3 -6 1 -7 9 -4 18 7 21 14 7 14 -6 0 -13 -4 -16 -10z"/>
<path d="M4110 919 c0 -5 5 -7 10 -4 6 3 10 8 10 11 0 2 -4 4 -10 4 -5 0 -10
-5 -10 -11z"/>
<path d="M2270 906 c0 -2 9 -6 20 -9 11 -3 18 -1 14 4 -5 9 -34 13 -34 5z"/>
<path d="M3710 906 c0 -2 9 -6 20 -9 11 -3 18 -1 14 4 -5 9 -34 13 -34 5z"/>
</g>
</svg>
